<?xml version="1.0" encoding="UTF-8" standalone="no"?>
<!DOCTYPE svg PUBLIC "-//W3C//DTD SVG 1.1//EN" "http://www.w3.org/Graphics/SVG/1.1/DTD/svg11.dtd">
<svg width="100%" height="100%" viewBox="0 0 2845 2845" version="1.1" xmlns="http://www.w3.org/2000/svg" xmlns:xlink="http://www.w3.org/1999/xlink" xml:space="preserve" xmlns:serif="http://www.serif.com/" style="fill-rule:evenodd;clip-rule:evenodd;stroke-linejoin:round;stroke-miterlimit:2;">
    <g transform="matrix(2.77778,0,0,2.77778,0,0)">
        <g id="logo-consumer" transform="matrix(2.3509,0,0,3.26726,-660.715,-514.171)">
            <g transform="matrix(1.31871,0,0,1.22776,289.84,238.302)">
                <clipPath id="_clip1">
                    <rect x="-0" y="0.1" width="126.709" height="108.3"/>
                </clipPath>
                <g clip-path="url(#_clip1)">
                    <path d="M370.2,30.4C364,30.4 359.2,34.7 356.4,39C356.5,37.9 356.5,37 356.5,36.2C356.1,32.9 353.1,30.6 349.8,31C347,31.3 344.9,33.5 344.6,36.3C344.6,39.9 345.4,45.4 345.4,51.2C345.4,52.2 345.4,53.1 345.3,54C339.8,59.6 333,64 324.3,64C317.7,64 314.7,61.5 313.4,57.9C328.7,57.8 336.5,51.7 336.5,42.5C336.5,35.4 330.3,30.4 321.5,30.4C310,30.4 300.5,39.1 300.5,52.7C300.4,55.5 300.9,58.3 301.9,61C300.6,62.8 298.6,63.8 296.4,63.7C292.1,63.7 290.5,60.3 290.5,41.9C290.5,33 291.3,23.3 291.3,14.8C291.3,11.5 288.7,8.8 285.4,8.8C282.1,8.8 279.4,11.4 279.4,14.7C279.4,19.5 279.8,24.8 280,32.9C277.9,31.6 274.8,30.5 269.9,30.5C254.9,30.5 246.9,42.2 246.9,52.4C246.8,55.3 247.4,58.3 248.4,61C246.7,62.6 244.5,63.5 242.2,63.6C239.7,63.6 237,61.4 237,53.3C237,51.5 237.3,44.3 237.3,41.6C237.3,34.6 232.2,30.4 224.7,30.4C217.6,30.4 212.8,34.4 209.9,39C210,37.9 210,37 210,36.2C209.6,32.9 206.6,30.6 203.3,31C200.5,31.3 198.4,33.5 198.1,36.3C198.1,39.9 198.9,45.4 198.9,51.2C198.9,52.2 198.9,53.1 198.8,54C198.3,58.5 191.6,63.5 185.8,63.5C178.3,63.5 175.4,59.2 175.4,52.2C175.4,49 177.9,46.7 177.9,43.1C177.9,38.9 174.6,35.5 170.4,35.4C166.2,35.4 162.8,38.7 162.7,42.9L162.7,43.3C162.7,46.6 165.2,48.9 165.2,52C165.2,59 162.1,63.4 154.8,63.4C149.1,63.4 141.5,58 140.8,52.8L140.8,53C148.9,45.3 163.1,30.1 163.1,17C163.1,7 157.7,0.1 148,0.1C136,0.1 129.8,8.9 129.8,18C129.8,21.8 130.3,33.9 130.3,50.8L130.3,53.3C127.5,57.6 123.5,63.5 117.9,63.5C114.9,63.5 113,61.4 112.2,58.1C111.3,54.5 111.5,49.7 111.5,44.6C111.5,42.8 111.5,40.9 111.6,39.1C115.4,39.2 118.6,39.2 120.7,39.2C123.2,39.3 125.2,37.3 125.3,34.8C125.3,32.2 123.5,30.3 120.6,30.3C118,30.3 114.9,30.4 112,30.4C112.2,25.9 112.4,21.6 112.4,18C112.8,14.7 110.4,11.7 107.1,11.4C103.8,11 100.8,13.4 100.5,16.7L100.5,18.1C100.5,19.2 100.8,24.7 101,30.3C99.8,30.3 98.7,30.2 97.5,30.2C95.1,30.1 93,32 92.9,34.4L92.9,34.7C93,37.2 95,39.1 97.5,39.1C98.5,39.1 99.6,39 101.3,39L101.3,40C101.3,42 101,46.7 100.7,50.9C94.6,57.9 87.1,64 76.8,64C70.2,64 67.2,61.5 66,57.9C81.3,57.8 89.1,51.7 89.1,42.5C89.1,35.4 82.9,30.4 74,30.4C62.5,30.4 53,39.1 53,52.7C53,54.7 53.2,56.7 53.7,58.7C49.5,61.1 44.9,62.9 40.1,63.9C43,60.1 44.6,55.4 44.6,50.7C44.6,36.4 34.7,30.5 24.5,30.5C19.9,30.5 15.4,31.9 11.8,34.7C11,32.1 8.6,30.4 5.9,30.5C2.6,30.4 0,33 0,36.3C0,39.9 0.8,49.7 0.8,62.7C0.8,75.7 0,84.3 0,89.3C0,92.8 1.9,95.2 5.1,95.2C8.1,95.2 12,92.8 12,89.3C12,88 11.5,79.9 11.2,69.7C16.1,71.9 21.7,72.3 29.2,72.3C41.5,72.3 51.5,67.8 56.8,64.9C60.5,69.7 66.9,72.3 75.8,72.3C86.9,72.3 95.6,65.9 100.7,61.1C101.9,68.7 107.2,72.4 116,72.4C122.6,72.4 127.3,68.3 130.3,64.6C130.1,76.4 129.6,86 129.6,91.2C129.6,105.3 137.5,108.4 143.3,108.4C155,108.4 161.2,99.3 161.2,89C161.1,82.9 159.1,77.1 155.4,72.3C160.7,72.2 166.1,71 170.3,64.9C174.5,71.5 181.5,72.3 185.6,72.3C190.6,72.3 194.6,70.2 198,66.9C198.5,70.2 201.5,72.5 204.8,72C207.6,71.6 209.7,69.3 209.9,66.5C209.9,65.4 209.5,60.6 209.3,56.1C209.3,50 215.7,39.3 221.4,39.3C224.3,39.3 226.1,41.8 226.1,45.3C226.1,48 225.8,53.3 225.8,56.8C225.8,65.1 227.9,72.4 239.6,72.4C244.4,72.3 249,70.5 252.6,67.2C256.6,70.7 261.7,72.5 267,72.4C272.9,72.4 278.6,70 282.7,65.6C284.1,69 287.3,72.3 294.3,72.3C298.9,72.4 303.2,70.5 306.2,67C310,70.4 315.8,72.3 323.3,72.3C332.2,72.3 339.5,68.2 344.7,64.1C344.7,64.9 344.6,65.7 344.6,66.4C345,69.7 347.9,72.1 351.2,71.7C354,71.4 356.2,69.2 356.5,66.5C356.5,65.4 356.1,60.5 355.9,56C356,48.8 363.3,40.1 366.9,40.1C369.3,40.1 368.8,43.4 373.2,43.4C376.4,43.4 378.9,40.8 378.9,37.6C378.9,34.9 376.9,30.4 370.2,30.4ZM141.6,18.4C141.6,13.3 144.6,9.5 147.8,9.5C151.4,9.5 152.9,13.1 152.9,16.9C152.9,26.3 146.1,35.2 141.1,41C141.2,32.4 141.6,20.2 141.6,18.4ZM20.8,63.5C17.2,63.6 13.8,62.2 11.2,59.7C11.2,57.1 11.3,54.7 11.3,52.4L11.3,52.1C11.3,46.4 15.5,39 23.3,39C28,39 32.7,42.7 32.7,50.8C32.7,59.8 26.4,63.5 20.8,63.5ZM73.9,37.9C76.7,37.7 79.1,39.9 79.3,42.7L79.3,43C79.3,47.7 76.3,50.7 65.1,50.8C65.1,40.8 70.6,37.9 73.9,37.9ZM146.6,99.3C143.4,99.3 141.7,96.3 141.7,91.5C141.7,91 141.5,79.9 141.3,69.2C144.6,73.4 151.6,80.7 151.6,90.4C151.5,96.9 148.9,99.3 146.6,99.3ZM280.2,50.9C280.2,56.6 275.9,64 268.2,64C263.5,64 258.8,60.3 258.8,52.2C258.8,43.1 265.1,39 270.8,39C274.4,38.9 277.8,40.4 280.2,43.1L280.2,50.9ZM321.4,37.9C324.3,37.8 326.7,40 326.8,42.9L326.8,43C326.8,47.5 323.8,50.6 312.6,50.8C312.5,40.8 318,37.9 321.4,37.9ZM369.2,68.9C369.3,70.8 367.8,72.5 365.9,72.6L365.6,72.6C363.7,72.7 362.1,71.2 362,69.3L362,68.9C362,66.9 363.6,65.3 365.6,65.3C367.6,65.3 369.2,66.9 369.2,68.9ZM362.7,68.9C362.6,70.4 363.7,71.8 365.3,71.9L365.6,71.9C367.1,72 368.4,70.8 368.5,69.3L368.5,68.9C368.6,67.3 367.4,66 365.9,65.9L365.7,65.9C364.2,65.8 362.9,67 362.8,68.5C362.7,68.7 362.7,68.8 362.7,68.9ZM366.3,69.4C366.9,69.2 367.3,68.6 367.2,67.9C367.1,67.3 366.5,67 366,67L364.3,67L364.3,70.8L365,70.8L365,69.4L365.6,69.4L366.7,70.7L367.5,70.7L367.5,70.6L366.3,69.4ZM365.9,67.7C366.2,67.7 366.5,67.9 366.6,68.2C366.6,68.5 366.4,68.8 366.1,68.9L364.9,68.9L364.9,67.7L365.9,67.7Z" style="fill:rgb(101,0,182);fill-rule:nonzero;"/>
                </g>
            </g>
            <g transform="matrix(0.220259,0,0,0.158483,371.885,220.551)">
                <g transform="matrix(390.103,0,0,390.103,511.021,630.676)">
                    <path d="M0,-0L0,-0.675L0.85,-0.675L0.85,-0.53L0.145,-0.53L0.145,-0.145L0.705,-0.145L0.705,-0.35L0.53,-0.35L0.53,-0.495L0.85,-0.495L0.85,-0L0,-0Z" style="fill:rgb(116,0,0);fill-rule:nonzero;"/>
                </g>
                <g transform="matrix(390.103,0,0,390.103,856.262,630.676)">
                    <path d="M0,-0L0,-0.675L0.85,-0.675L0.85,-0.53L0.145,-0.53L0.145,-0.495L0.85,-0.495L0.85,-0.35L0.145,-0.35L0.145,-0.145L0.85,-0.145L0.85,-0L0,-0Z" style="fill:rgb(116,0,0);fill-rule:nonzero;"/>
                </g>
                <g transform="matrix(390.103,0,0,390.103,1201.5,630.676)">
                    <path d="M0,-0L0,-0.675L0.144,-0.675L0.705,-0.221L0.705,-0.674L0.85,-0.674L0.85,0.001L0.706,0.001L0.146,-0.454L0.145,-0L0,-0Z" style="fill:rgb(116,0,0);fill-rule:nonzero;"/>
                </g>
            </g>
            <g transform="matrix(0.70096,0,0,0.504364,161.33,60.8932)">
                <g transform="matrix(86.1182,0,0,86.1182,426.172,494.683)">
                    <path d="M0,-0.352L0,-0.5L0.151,-0.5L0.151,-0.352L0,-0.352ZM0,-0L0,-0.148L0.151,-0.148L0.151,-0L0,-0Z" style="fill:rgb(116,0,0);fill-rule:nonzero;"/>
                </g>
                <g transform="matrix(86.1182,0,0,86.1182,441.674,494.683)">
                    <path d="M0,-0.352L0,-0.5L0.151,-0.5L0.151,-0.352L0,-0.352ZM0,-0L0,-0.148L0.151,-0.148L0.151,-0L0,-0Z" style="fill:rgb(101,0,182);fill-rule:nonzero;"/>
                </g>
            </g>
        </g>
    </g>
</svg>
